<?xml version="1.0" encoding="utf-8"?>
<!-- Generator: Adobe Illustrator 19.0.0, SVG Export Plug-In . SVG Version: 6.00 Build 0)  -->
<svg version="1.1" id="Layer_1" xmlns="http://www.w3.org/2000/svg" xmlns:xlink="http://www.w3.org/1999/xlink" x="0px" y="0px"
	 viewBox="0 0 612 792" style="enable-background:new 0 0 612 792;" xml:space="preserve">
<style type="text/css">
	.st0{stroke:#F7941E;stroke-miterlimit:10;}
	.st1{fill:#BE1E2D;}
	.st2{fill:#FFFFFF;}
	.st3{fill:#603913;}
	.st4{fill:#BCBEC0;}
	.st5{fill:#006838;}
	.st6{fill:#754C29;stroke:#F1F2F2;stroke-miterlimit:10;}
	.st7{fill:#939598;}
	.st8{fill:#1C75BC;}
</style>
<path id="XMLID_4_" class="st0" d="M218.4,70c6.2,3.2,14.2,8.8,18,18c3.4,8.1,1.5,14.1,1.5,28.5c0,12.1,1.4,10.9,3,31.5
	c1.7,21.2,2.6,32,1.5,46.5c-1.3,18.1-4.4,24.8,0,36c1.4,3.5,4.4,11.3,12,16.5c8.4,5.7,13.3,2.1,31.5,6c12.9,2.8,13.2,5.2,25.5,7.5
	c8.2,1.6,14.6,1.6,27,1.5c49.9-0.2,55.6-0.6,63-1.5c6.8-0.8,16.2,0,27-4.5c5-2.1,11.2-4.7,15-10.5c5.4-8.1,3.1-17.5,1.5-27
	c-5.2-30.8-3-21.5-3-57c-2.4-12.8-6.1-23.6-13.5-45c-3.4-10-6-16.5-10.5-24c0,0-6.8-11.4-16.5-21c-20.2-20-84.9-35.9-165-9
	c-25.1,8.5-47.7,13.6-70.5,33c-13.7,11.6-35.8,30.4-42,60c-7.4,35.3,11.3,69.7-4.5,81c-4.6,3.3-10.7,3.6-15,10.5
	c-4.5,7.2-1.6,13-6,19.5c-4.6,6.7-10.6,3.4-16.5,9c-4.7,4.4-4.8,9.8-6,33c-1.5,28.8-1.7,27.8-1.5,31.5c1,16.1,1.3,25.9,7.5,36
	c3.1,5.1,5.2,6.1,10.5,15c4.1,6.7,8.2,14.9,9,16.5c5.7,11.4,6,13.6,9,15c5.9,2.8,10.6-3,16.5-1.5c8,2,3.7,16,13.5,27
	c5.2,5.8,14.6,11.6,21,9c9.9-4.1,6.6-26.1,12-27c4.1-0.7,8.7,11.3,18,31.5c13.4,29.2,12.6,23.8,21,43.5c12.3,28.9,11,33.6,19.5,48
	c4.9,8.3,13,16.6,28.5,33c22.1,23.5,27.1,22,29.9,30.4c1.6,4.8,2.3,10.6,7,19c3.5,6.3,4.8,6,9,13c3.6,6,3.7,7.9,10,22
	c6.2,13.8,7.8,15.6,10,16c3.8,0.7,5.1-3.4,15-9c7.8-4.4,10.8-3.9,12-7c0.9-2.3,0.1-4.6-7-16c-9.8-15.7-12.3-17.7-15-19
	c-6.9-3.4-14-2.2-14-2c0,0.3,19.9,2.2,37,3c9.1,0.4,13.8,0.6,17,0c13.6-2.7,22.4-11.9,30-20c8.3-8.8,6.5-9.9,19-26
	c12.4-16.1,14.6-15.6,20-25c5.1-8.9,5.9-13.9,11-30c4.5-14.2,3.8-9.9,14-39c13.6-38.8,19.9-58.4,20-60c0.3-3.3,0.7-10.9,6-15
	c4.6-3.5,8.2-0.7,13-4c5.9-4,4-10.4,10-20c3.7-5.8,4.9-4.2,9-10c3.7-5.2,5.5-11.6,9-24c2.9-10.4,4.4-15.6,5-22
	c0.8-7.8,0.4-13.9,0-19c-0.3-4.1-0.8-11.2-3-20c-3.4-14-4.7-21.1-10-26c-4-3.7-6.5-3.4-10-8c-3.7-4.9-4.5-10.2-5-14
	c-2-15-2.5-26.4-3-33c-0.5-6.3-2-13.9-5-29c-3.2-16.1-4.8-24.3-7.8-32.6c-0.1-0.3-0.2-0.5-0.4-0.8c-1.2-1.9-7.2-11.6-11.7-23.4
	c-0.1-0.1-0.1-0.3-0.2-0.4c-7.9-15.5-51.7-55.8-62.6-54.5"/>
<path id="XMLID_1_" class="st1" d="M218.4,70c0,0.3,0.1,0.6,3.1,3c3.3,2.5,4.8,3.5,5.8,4.1c0.8,0.5,1.4,0.8,1.7,0.9
	c8.2,4.5,9.4,17.1,9.5,18.5c0.1,1.3,0,0.7-0.5,9.5c-0.5,8.5-0.7,12.8-0.5,16c0.4,7.6,1.8,6.5,2.5,15c0.5,6.7-0.3,7.7,0.5,16
	c0.3,2.9,0.5,4.5,0.8,8.7c0.3,3.9,0.2,4.9,0.5,8.3c0.4,5.4,0.8,5.3,1,8.7c0.2,3-0.1,3.7-0.5,11.7c-0.4,7.4-0.2,6.7-0.5,10.3
	c-0.6,7.1-1.2,7.1-1.5,12.5c-0.3,5.5-0.5,9.2,0.8,13.8c1.1,3.6,2.7,6.5,3.7,8.2c0.9,1.6,2.4,3.9,4.5,6.5c2.7,3.3,4.4,5.3,7.2,6.8
	c0.9,0.5,2.4,1.2,10.2,2c6.7,0.7,7,0.4,12.2,1c4,0.5,7.6,0.9,12,2.3c2.7,0.8,2.4,1,7.3,2.8c4.8,1.8,7.4,2.7,10.7,3.5
	c3,0.7,5.9,0.9,11.8,1.3c5.4,0.4,9.6,0.5,12.2,0.5c1.5,0,1.6,0,7.7,0c4.8,0,9.7,0,14.5,0c6.8,0,10.2,0,10.2,0
	c10,0.1,10.2,0.3,13.5,0c4.1-0.3,5.1-0.8,9.2-0.8c2.7,0,3.7,0.1,6.7,0c2.6-0.1,4.2-0.3,7.3-0.7c4.2-0.5,8.3-0.9,12.5-1.3
	c8.1-0.9,9.2-1,11.2-1.7c2.9-1,4.8-2.1,7.7-3.8c5.1-3.1,7.7-4.6,9.8-7.5c3.3-4.4,3.7-9.3,3.8-11.5c0.2-2.5-0.1-3.5-1.3-11.2
	c-0.6-4-1.2-8-1.8-12c-1.4-9.2-2.1-13.9-2.3-16.8c-0.3-5-0.2-8.9,0-14.7c0.3-9,0.9-10.1,0.5-15.2c-0.4-4.5-1.1-7.8-2.2-12.2
	c-1.5-6.3-3.1-10.9-4-13.7c-2.8-8.2-5.3-16.6-8-24.8c-7.2-22.2-7.8-25.7-12.2-31.3c-3.6-4.6-9.8-9.4-11.2-10.5
	c-2.5-2.1-6.2-5.1-11.2-8.2c-1.6-1-7.7-4.6-17-7.8c-22-7.6-49.2-8.7-49.2-8.7c-26.3-1.1-46,2.9-51.2,4c-12.1,2.6-11.3,3.8-24.2,6.3
	c-2.1,0.4-10.7,3.1-27.8,8.5C222.4,66.9,218.4,68.3,218.4,70z"/>
<path id="XMLID_2_" class="st2" d="M177.7,85"/>
<path id="XMLID_13_" class="st3" d="M174.3,90c3.5-0.7,6.6,0.7,10,2.3c5,2.4,8.3,5.5,9.7,7c5.3,5.5,9.2,12.7,12.7,24.3
	c2.2,7.5,3.6,14.6,5,26c1.7,14.1,1.5,18.6,3,41c1.2,16.9,1.4,15.6,2.7,34.3c1.2,18.3,1,19.1,2,30c0.9,9.7,2,18.5,3.3,30
	c1.3,10.6,1.9,15.9,2.3,19c1.6,11.6,2.6,17.4,2.7,26.3c0,8.6,0,13-2.3,15.7c-4.1,4.7-11.6,4.2-25.7,3c0,0-7-0.1-25-4
	c-1.6-0.3-4.7-1.1-6.7-3.7c-1.7-2.2-1.5-4.7-1.7-7.3c-0.1-1.3-1.2-5.7-3.3-14.3c-1.5-5.9-2.2-7.4-5-16.3c-1.5-4.8-4.4-14.2-7.3-25.7
	c-2.1-8.2-3.4-14.6-4.3-19c-2.1-10.1-2.3-12.3-3.7-19.3c-2.3-11.3-4.6-19.5-8.7-33.3c-5.1-17.5-7.6-26.3-7.7-26.3
	c-1.1-2.6-3.5-8.1-3.7-15.7c0-0.9-0.1-3.9,0.7-8c1.4-8.2,4.7-14,8.3-20.3c2.8-4.8,7-12.1,14.3-19.7c3.5-3.7,4.8-4.3,11-10.7
	c3.5-3.6,5.1-5.2,8.3-8.3C171,91.4,172.3,90.4,174.3,90z"/>
<path id="XMLID_5_" class="st2" d="M191.4,435.2c5.5-8.4,21.3-2.9,27.4-0.7c67.1,23.6,96.7,173.4,81.5,183.1
	C282.3,629.2,172.9,463.4,191.4,435.2z"/>
<g id="Eye">
	<path id="XMLID_7_" class="st4" d="M415.5,346H276.2c-10.1,0-18.4-8.3-18.4-18.4v0c0-10.1,8.3-18.4,18.4-18.4h139.2
		c10.1,0,18.4,8.3,18.4,18.4v0C433.9,337.7,425.6,346,415.5,346z"/>
	<path id="XMLID_6_" class="st5" d="M418.9,344H273.3c-6.6,0-12-5.4-12-12v-8.4c0-6.6,5.4-12,12-12h145.5c6.6,0,12,5.4,12,12v8.4
		C430.9,338.6,425.5,344,418.9,344z"/>
</g>
<polygon id="XMLID_10_" class="st6" points="492.7,359.1 488.4,374.7 481.1,388.7 467.1,416.7 455.1,439.4 436.4,474.7 413.1,526.7 
	397.1,568 386.4,609.4 383.1,624.7 383.1,630 392.4,622.7 409.1,602.7 427.1,577.4 437.9,552.7 453.8,506 467.1,464.7 480.4,434 
	481.8,430 488.4,411.4 492.7,404.2 "/>
<path id="XMLID_11_" class="st2" d="M327.8,657.1c-2.1,3.6-1.2,7.7,1.3,9.3c1.8,1.2,4.3,0.9,6,0c1.7-0.9,3.7-3,3.3-5.3
	c-0.4-2.5-3.1-3.6-4-4C331.5,655.8,328.6,656.8,327.8,657.1z"/>
<polygon id="XMLID_12_" class="st2" points="304.2,494.6 311.6,482.6 390.2,482.6 395.6,494.6 "/>
<g id="left-nuts">
	<path id="XMLID_9_" class="st2" d="M157.3,146.5c0.3,4.5,3,8.5,5.6,9.4c1.9,0.6,3.5-0.5,4.3-2c0.7-1.5,1.1-4.4-0.3-6.8
		c-1.5-2.5-4-2.8-4.9-2.9C159.2,143.9,157.7,145.9,157.3,146.5z"/>
	<path id="XMLID_14_" class="st2" d="M167.3,193.3c-1.7,3.5-0.4,7.2,2.2,8.4c1.9,0.9,4.4,0.4,6-0.6c1.6-1,3.4-3.1,2.8-5.2
		c-0.6-2.2-3.4-3-4.4-3.3C170.8,191.8,168,193,167.3,193.3z"/>
	<path id="XMLID_15_" class="st2" d="M175.5,239.1c-2.7,6.1-0.6,12.4,3.7,14.6c3.1,1.6,7,0.7,9.6-1c2.5-1.7,5.4-5.3,4.4-9
		c-1-3.9-5.5-5.2-7-5.7C181.1,236.5,176.7,238.5,175.5,239.1z"/>
	<path id="XMLID_16_" class="st2" d="M181,293.7c-2.7,6.1-0.6,12.4,3.7,14.6c3.1,1.6,7,0.7,9.6-1c2.5-1.7,5.4-5.3,4.4-9
		c-1-3.9-5.5-5.2-7-5.7C186.6,291,182.2,293.1,181,293.7z"/>
</g>
<path id="XMLID_18_" class="st7" d="M589.7,491"/>
<path id="XMLID_17_" class="st7" d="M510.3,264.3c1.7-1.3,11.5,7.6,17.3,15.3c28.1,36.9,7.6,100.6-4.7,110.7
	c-1.3,1.1-5.7,4.2-8.7,10c-2.8,5.4-1.3,7-4,11.3c-3.2,5.1-8.9,8.6-14.7,9.3c-2.4,0.3-5.6,0.7-6.7-0.7c-3.6-4.4,25-18.6,36-47.3
	c6-15.8,5.3-31.9,4.7-45.3c-0.6-13.5-0.4-20.4-4-28.7c-2.2-5.1-5.1-9.2-10.7-21.3C509.5,265.7,510,264.6,510.3,264.3z"/>
<path id="XMLID_19_" class="st8" d="M512.6,283.7c0.2,0-1.1,3.6,0,8.1c1.3,5.3,4.8,7.3,7.6,11.3c1.2,1.6,1.9,3.3,3.1,20.6
	c1,16.2,0.6,18.9,0,21.3c-1.4,5.7-3.9,9.5-6.9,14.4c-5.2,8.4-14.1,19.7-16.8,18.8c-2.1-0.8,2.1-8.4,3.8-25c0.7-6.7,0.1-6.3,0.8-16.9
	c0.2-3.4,0.9-14,3.1-27.5C509.6,293.9,512.3,283.6,512.6,283.7z"/>
<path id="XMLID_22_" class="st7" d="M131,305.2c-2-18.6-5-18.7-6.3-37.6c-0.5-7.7-0.3-13.2-3.3-18.2c-0.8-1.4-1.8-2.5-2.9-3.3
	c-0.1,0-0.3,0-0.4,0.1c-1,0.1-1.7-0.4-2.3-1.1c-0.1,0-0.1,0-0.2,0c-0.1,0-0.1,0-0.2,0c-0.2,0-0.4,0-0.6-0.1
	c-0.2,0.1-0.4,0.1-0.7,0.1c-0.3,0-0.6,0-0.9-0.1c-0.3,0.1-0.5,0.2-0.9,0.2c-0.4,0-0.8-0.1-1.1-0.2c-0.3,0.2-0.7,0.3-1.1,0.3
	c-0.3,0-0.6,0-0.8-0.1c-0.4,0.5-1,0.8-1.7,0.9c-0.4,0.7-0.9,1.1-1.7,1.3c-0.1,1.3-0.4,2.4-1.1,3.2c0,0.5-0.1,1.1-0.2,1.6
	c0.1,0.3,0.3,0.6,0.3,0.8c3.3,7.7,2.5,14,3.2,23.9c0.8,9.9,2,8.6,4,22.5c1.1,7.9,1.2,11.4,2.4,31.5c0.6,9.8,1.2,20.6,2,32.2
	c1.8,27.1,2.6,31.4,0.7,39.2c-1.9,7.4-5.1,13.8-3.9,15.4c1,1.3,3.4-2.7,8.1-3c5.2-0.4,7.3,4.2,9.8,3.2c5.1-2,4.5-22.2,4.3-29.4
	c-0.6-20.2-3.5-23.2-4.8-42.1C129.4,324.2,133.1,325.3,131,305.2z"/>
<path id="XMLID_20_" class="st8" d="M94.4,299.5c-0.2,0,1.1,2.9,0,6.5c-1.3,4.2-4.9,5.8-7.7,8.9c-1.2,1.3-2,2.6-3.1,16.4
	c-1,12.9-0.6,15,0,16.9c1.4,4.5,3.9,7.6,6.9,11.4c5.2,6.7,14.3,15.7,16.9,14.9c2.1-0.6-2.1-6.7-3.8-19.9c-0.7-5.3-0.1-5-0.8-13.4
	c-0.2-2.7-1-11.1-3.1-21.9C97.5,307.6,94.8,299.5,94.4,299.5z"/>
<g id="XMLID_3_">
	<g id="XMLID_32_">
		<path id="XMLID_36_" d="M332,663.5c3.2,0,3.2-5,0-5C328.8,658.5,328.8,663.5,332,663.5L332,663.5z"/>
	</g>
</g>
</svg>
